<svg width="17" height="16" xmlns="http://www.w3.org/2000/svg">

 <g>
  <title>background</title>
  <rect fill="none" id="canvas_background" height="402" width="582" y="-1" x="-1"/>
 </g>
 <g>
  <title>Layer 1</title>
  <path stroke="null" id="svg_3" d="m6.176051,14.545684c0.819426,-0.821516 1.514855,-1.799984 1.808591,-2.910923c-0.878412,0.64117 -1.684047,1.672452 -2.909387,1.633382c-0.925055,0.050973 -2.027007,0.051836 -2.678171,-0.690959c-1.455166,-1.123445 -1.846064,-3.368849 -0.651146,-4.798589c0.817707,-1.032329 2.245604,-1.470065 3.556,-1.315227c0.825653,-0.336347 -0.161489,-1.18801 -0.260761,-1.719536c-0.614506,-1.928049 0.833165,-4.240709 2.96185,-4.462816c1.526814,-0.210447 3.019401,0.738493 3.766494,1.970013c0.405993,0.861717 0.194456,1.839706 0.099734,2.733678c-0.318972,0.449254 -1.135898,1.536117 0.029884,1.450509c1.152624,-0.017513 2.369809,0.307365 3.12986,1.187363c1.111712,1.18518 1.213687,3.143699 0.095191,4.354734c-0.591649,0.737634 -1.479475,1.328006 -2.484332,1.295137c-0.98352,0.095326 -2.048526,-0.109526 -2.745954,-0.829008c-0.297454,-0.200115 -1.026316,-0.956193 -1.026064,-0.790383c0.728517,1.457142 1.55231,2.970367 3.009675,3.873318c0.520704,0.401967 -0.793113,0.12561 -1.111165,0.207537c-1.92703,0.001635 -3.854052,0.003302 -5.781083,0.004945c0.396926,-0.397731 0.793876,-0.795444 1.190785,-1.193175l0,-0.000001z" stroke-opacity="null" stroke-width="null" fill="#000000"/>
 </g>
</svg>