<svg width="17" height="16" xmlns="http://www.w3.org/2000/svg">
 <g>
  <title>background</title>
  <rect x="-1" y="-1" width="19" height="18" id="canvas_background" fill="none"/>
 </g>

 <g>
  <title>Layer 1</title>
  <path id="svg_1" d="m-464.536967,62.151781c28.629597,-0.059619 49.56476,-0.135116 67.106535,-0.211613c10.715876,-0.030511 0.570595,-0.057203 -14.025053,-0.03133c-37.510621,0.054045 -88.571208,0.072578 -129.184225,0.023272c-45.911478,-0.05123 -66.615088,-0.173051 -56.198197,-0.279197c6.596901,-0.107571 42.878523,-0.191889 82.271749,-0.252457c45.25178,-0.069854 94.118079,-0.12982 135.475582,-0.210708c17.268575,0.000747 30.264711,0.059223 48.849441,0.074696c49.347494,0.079315 107.82877,0.137698 146.688467,0.243757c19.63261,0.060434 30.822062,0.13485 32.071253,0.208412c-5.981653,0.099755 -33.546404,0.20496 -81.082121,0.233369c-41.093169,0.026831 -83.371791,-0.007196 -119.181628,-0.050485c-4.374039,-0.002026 -20.417432,-0.029301 -14.059002,-0.008104c21.408257,0.094803 44.864518,0.188941 78.835188,0.265916c1.996699,0.009726 17.65618,0.032801 9.322178,0.032434c-69.751652,0 -139.503086,0 -209.254784,0c7.454686,-0.012654 14.909652,-0.025308 22.364618,-0.037962l0,0z" opacity="0.5" fill-opacity="null" stroke-opacity="null" stroke-width="null" stroke="null" fill="#000000"/>
  <path stroke="null" id="svg_3" d="m6.248501,13.329844c-4.170774,-3.100881 -5.661991,-5.062442 -5.674077,-7.463748c-0.011021,-2.189085 1.82981,-4.301874 3.737507,-4.28969c0.952619,0.006096 2.996047,0.8118 3.719632,1.466634c0.364585,0.329943 0.53727,0.297408 1.348978,-0.254163c2.209129,-1.501139 4.366366,-1.532647 5.763487,-0.084174c2.232897,2.314965 1.826373,5.079455 -1.168617,7.946979c-1.592309,1.524542 -5.069562,4.229165 -5.43731,4.229165c-0.1119,0 -1.14222,-0.697953 -2.289601,-1.551003l0,0.000001z" stroke-opacity="null" stroke-width="null" fill="#ff0000"/>
 </g>
</svg>