<svg width="17" height="16" xmlns="http://www.w3.org/2000/svg">

 <g>
  <title>background</title>
  <rect fill="none" id="canvas_background" height="402" width="582" y="-1" x="-1"/>
 </g>
 <g>
  <title>Layer 1</title>
  <path stroke="null" id="svg_4" d="m5.992253,15.068939c0.910636,-0.902872 1.576532,-2.046212 2.134492,-3.204696c0.340845,-0.462057 0.018149,-0.866287 -0.446102,-0.47447c-1.19312,0.818462 -2.81723,1.099136 -4.109029,0.352433c-1.46033,-0.775838 -2.11886,-2.620696 -1.787525,-4.228196c0.209831,-1.62906 1.363859,-2.905985 2.61686,-3.823233c1.439347,-1.057874 2.993662,-1.966011 4.309141,-3.19098c0.54927,0.011313 0.962645,0.896872 1.553779,1.131211c1.569621,1.20116 3.429765,2.085312 4.665795,3.691485c0.624464,0.915214 0.980373,2.042188 1.020107,3.156217c-0.190262,1.510706 -1.067028,3.103939 -2.57902,3.534158c-1.307071,0.406324 -2.651849,-0.108978 -3.790871,-0.764555c-0.139127,-0.030677 -0.649428,-0.443733 -0.447182,-0.122726c0.680943,1.435713 1.427029,2.861344 2.507551,4.027062c0.06351,0.147291 0.561599,0.496737 0.296515,0.491185c-2.218626,0 -4.437246,0 -6.655874,0c0.237115,-0.19163 0.474239,-0.383265 0.711363,-0.574896l0,0.000001z" fill-opacity="null" stroke-opacity="null" stroke-width="null" fill="#000000"/>
 </g>
</svg>